<svg width="147" height="27" viewBox="0 0 147 27" fill="none" xmlns="http://www.w3.org/2000/svg">
<path d="M0.439941 14.7076C0.439941 11.9298 1.10353 9.795 2.4307 8.30321C3.75788 6.81143 5.67662 6.06553 8.18693 6.06553C10.0594 6.06553 11.6026 6.51821 12.8166 7.42357C14.0306 8.31864 14.7817 9.5275 15.0697 11.0502L12.1067 11.2662C11.9421 10.33 11.5306 9.59437 10.8721 9.05939C10.2137 8.51412 9.27748 8.24148 8.06348 8.24148C6.43795 8.24148 5.24452 8.7456 4.48319 9.75384C3.73216 10.7621 3.35664 12.3928 3.35664 14.6459C3.35664 16.9298 3.73216 18.6017 4.48319 19.6614C5.24452 20.7107 6.4328 21.2354 8.04804 21.2354C9.15917 21.2354 10.08 20.9628 10.8104 20.4175C11.5409 19.8723 11.9936 19.0389 12.1685 17.9175L15.1006 18.1027C14.9668 19.0904 14.5913 19.9906 13.974 20.8033C13.367 21.6058 12.5594 22.2385 11.5512 22.7015C10.5429 23.1542 9.41637 23.3805 8.1715 23.3805C5.6509 23.3805 3.73216 22.6398 2.41527 21.1583C1.09838 19.6768 0.439941 17.5266 0.439941 14.7076Z" fill="#DAF97A"/>
<path d="M34.4063 21.3589C34.6738 21.3589 34.9773 21.3229 35.3168 21.2509V22.9793C34.6172 23.1439 33.9022 23.2262 33.1718 23.2262C32.1429 23.2262 31.3919 22.9587 30.9186 22.4237C30.4557 21.8785 30.1933 21.0297 30.1316 19.8774H30.039C29.3703 21.1223 28.5781 22.0173 27.6624 22.5626C26.7571 23.1079 25.6357 23.3805 24.2982 23.3805C22.6727 23.3805 21.4484 22.9381 20.6253 22.0534C19.8023 21.1686 19.3908 19.9546 19.3908 18.4113C19.3908 14.8208 21.7262 12.9998 26.397 12.9483L30.039 12.8866V11.9761C30.039 10.6283 29.7664 9.66125 29.2211 9.07482C28.6758 8.47811 27.8065 8.17975 26.6131 8.17975C25.399 8.17975 24.5245 8.3958 23.9896 8.82791C23.4546 9.26001 23.1356 9.92874 23.0328 10.8341L20.1315 10.5718C20.6048 7.56761 22.7807 6.06553 26.6593 6.06553C28.717 6.06553 30.2602 6.54908 31.289 7.51616C32.3281 8.47296 32.8477 9.86187 32.8477 11.6829V18.8743C32.8477 19.6974 32.9557 20.3198 33.1718 20.7416C33.3878 21.1531 33.7993 21.3589 34.4063 21.3589ZM25.0081 21.2663C25.9958 21.2663 26.8703 21.0297 27.6316 20.5564C28.3929 20.0832 28.9845 19.4504 29.4063 18.6583C29.8281 17.8661 30.039 17.0482 30.039 16.2045V14.8311L27.1069 14.8928C25.8929 14.9134 24.9669 15.0471 24.3291 15.294C23.6912 15.5409 23.1922 15.9216 22.8321 16.436C22.4823 16.9401 22.3075 17.614 22.3075 18.4576C22.3075 19.3013 22.5338 19.9803 22.9865 20.4947C23.4494 21.0091 24.1233 21.2663 25.0081 21.2663Z" fill="#DAF97A"/>
<path d="M39.3292 8.56556V6.37418H41.9527L42.8478 2.02228H44.6997V6.37418H51.3664V8.56556H44.6997V18.6274C44.6997 19.4402 44.9157 20.042 45.3478 20.433C45.7902 20.8239 46.5104 21.0194 47.5083 21.0194C48.8869 21.0194 50.4147 20.8445 52.0917 20.4947V22.6089C50.353 23.0822 48.6297 23.3188 46.9219 23.3188C45.2552 23.3188 44.0052 22.969 43.1719 22.2694C42.3385 21.5595 41.9218 20.4433 41.9218 18.9206V8.56556H39.3292Z" fill="#DAF97A"/>
<path d="M55.3016 26.467V24.9855H74.4068V26.467H55.3016Z" fill="#DAF97A"/>
<path d="M76.3666 14.7076C76.3666 11.9298 77.0302 9.795 78.3574 8.30321C79.6846 6.81143 81.6033 6.06553 84.1136 6.06553C85.9861 6.06553 87.5293 6.51821 88.7433 7.42357C89.9573 8.31864 90.7084 9.5275 90.9964 11.0502L88.0334 11.2662C87.8688 10.33 87.4573 9.59437 86.7989 9.05939C86.1404 8.51412 85.2042 8.24148 83.9902 8.24148C82.3647 8.24148 81.1712 8.7456 80.4099 9.75384C79.6589 10.7621 79.2833 12.3928 79.2833 14.6459C79.2833 16.9298 79.6589 18.6017 80.4099 19.6614C81.1712 20.7107 82.3595 21.2354 83.9748 21.2354C85.0859 21.2354 86.0067 20.9628 86.7371 20.4175C87.4676 19.8723 87.9203 19.0389 88.0952 17.9175L91.0273 18.1027C90.8935 19.0904 90.518 19.9906 89.9007 20.8033C89.2937 21.6058 88.4861 22.2385 87.4779 22.7015C86.4696 23.1542 85.3431 23.3805 84.0982 23.3805C81.5776 23.3805 79.6589 22.6398 78.342 21.1583C77.0251 19.6768 76.3666 17.5266 76.3666 14.7076Z" fill="#DAF97A"/>
<path d="M96.1971 0.17041H98.9903V6.18899C98.9903 6.79599 98.944 7.80938 98.8515 9.22915H98.8978C99.978 7.12007 101.722 6.06553 104.129 6.06553C107.73 6.06553 109.531 8.02543 109.531 11.9452V23.0719H106.737V12.3465C106.737 10.9473 106.465 9.90816 105.919 9.22915C105.384 8.55013 104.525 8.21062 103.342 8.21062C102.067 8.21062 101.017 8.67873 100.194 9.61495C99.3813 10.5409 98.9749 11.8012 98.9749 13.3959V23.0719H96.1971V0.17041Z" fill="#DAF97A"/>
<path d="M129.315 21.3589C129.582 21.3589 129.886 21.3229 130.225 21.2509V22.9793C129.526 23.1439 128.811 23.2262 128.08 23.2262C127.051 23.2262 126.3 22.9587 125.827 22.4237C125.364 21.8785 125.102 21.0297 125.04 19.8774H124.947C124.279 21.1223 123.486 22.0173 122.571 22.5626C121.665 23.1079 120.544 23.3805 119.207 23.3805C117.581 23.3805 116.357 22.9381 115.534 22.0534C114.711 21.1686 114.299 19.9546 114.299 18.4113C114.299 14.8208 116.635 12.9998 121.305 12.9483L124.947 12.8866V11.9761C124.947 10.6283 124.675 9.66125 124.129 9.07482C123.584 8.47811 122.715 8.17975 121.521 8.17975C120.307 8.17975 119.433 8.3958 118.898 8.82791C118.363 9.26001 118.044 9.92874 117.941 10.8341L115.04 10.5718C115.513 7.56761 117.689 6.06553 121.568 6.06553C123.625 6.06553 125.169 6.54908 126.197 7.51616C127.237 8.47296 127.756 9.86187 127.756 11.6829V18.8743C127.756 19.6974 127.864 20.3198 128.08 20.7416C128.296 21.1531 128.708 21.3589 129.315 21.3589ZM119.916 21.2663C120.904 21.2663 121.779 21.0297 122.54 20.5564C123.301 20.0832 123.893 19.4504 124.315 18.6583C124.736 17.8661 124.947 17.0482 124.947 16.2045V14.8311L122.015 14.8928C120.801 14.9134 119.875 15.0471 119.237 15.294C118.6 15.5409 118.101 15.9216 117.741 16.436C117.391 16.9401 117.216 17.614 117.216 18.4576C117.216 19.3013 117.442 19.9803 117.895 20.4947C118.358 21.0091 119.032 21.2663 119.916 21.2663Z" fill="#DAF97A"/>
<path d="M134.238 8.56556V6.37418H136.861L137.756 2.02228H139.608V6.37418H146.275V8.56556H139.608V18.6274C139.608 19.4402 139.824 20.042 140.256 20.433C140.699 20.8239 141.419 21.0194 142.417 21.0194C143.795 21.0194 145.323 20.8445 147 20.4947V22.6089C145.261 23.0822 143.538 23.3188 141.83 23.3188C140.164 23.3188 138.914 22.969 138.08 22.2694C137.247 21.5595 136.83 20.4433 136.83 18.9206V8.56556H134.238Z" fill="#DAF97A"/>
</svg>
