<svg width="159" height="29" viewBox="0 0 159 29" fill="none" xmlns="http://www.w3.org/2000/svg">
<path d="M0.164551 15.9755C0.164551 12.9785 0.880511 10.6752 2.31243 9.06569C3.74435 7.45617 5.81453 6.65141 8.52297 6.65141C10.5432 6.65141 12.2082 7.13981 13.518 8.11663C14.8279 9.08234 15.6382 10.3866 15.949 12.0294L12.7521 12.2625C12.5745 11.2524 12.1305 10.4588 11.4201 9.88155C10.7097 9.29324 9.69959 8.99909 8.38977 8.99909C6.63594 8.99909 5.34832 9.543 4.52691 10.6308C3.7166 11.7186 3.31145 13.478 3.31145 15.9089C3.31145 18.3732 3.7166 20.1769 4.52691 21.3203C5.34832 22.4525 6.63039 23.0186 8.37312 23.0186C9.57193 23.0186 10.5654 22.7244 11.3535 22.1361C12.1416 21.5478 12.63 20.6487 12.8187 19.4388L15.9823 19.6386C15.838 20.7042 15.4328 21.6755 14.7668 22.5524C14.1119 23.4182 13.2405 24.1009 12.1527 24.6004C11.0649 25.0888 9.84944 25.333 8.50632 25.333C5.78678 25.333 3.7166 24.5338 2.29578 22.9353C0.874961 21.3369 0.164551 19.017 0.164551 15.9755Z" fill="#4F5EE3"/>
<path d="M36.8117 23.1518C37.1003 23.1518 37.4278 23.1129 37.7941 23.0352V24.9001C37.0393 25.0777 36.2678 25.1665 35.4797 25.1665C34.3697 25.1665 33.5594 24.8779 33.0488 24.3007C32.5493 23.7123 32.2662 22.7966 32.1996 21.5534H32.0997C31.3782 22.8965 30.5235 23.8622 29.5356 24.4505C28.5588 25.0388 27.3488 25.333 25.9058 25.333C24.152 25.333 22.8311 24.8557 21.9431 23.9011C21.055 22.9464 20.611 21.6366 20.611 19.9716C20.611 16.0976 23.1308 14.1329 28.1702 14.0774L32.0997 14.0108V13.0284C32.0997 11.5743 31.8056 10.5309 31.2172 9.8982C30.6289 9.25439 29.691 8.93249 28.4034 8.93249C27.0935 8.93249 26.15 9.16559 25.5728 9.6318C24.9956 10.098 24.6515 10.8195 24.5405 11.7963L21.4103 11.5133C21.9209 8.27203 24.2685 6.65141 28.4533 6.65141C30.6733 6.65141 32.3384 7.17311 33.4484 8.21653C34.5695 9.24884 35.13 10.7474 35.13 12.7121V20.4711C35.13 21.3591 35.2466 22.0307 35.4797 22.4858C35.7128 22.9298 36.1568 23.1518 36.8117 23.1518ZM26.6717 23.0519C27.7373 23.0519 28.6809 22.7966 29.5023 22.286C30.3237 21.7754 30.9619 21.0927 31.417 20.238C31.8722 19.3833 32.0997 18.5008 32.0997 17.5906V16.1087L28.9362 16.1753C27.6263 16.1975 26.6273 16.3418 25.9391 16.6082C25.2509 16.8747 24.7125 17.2854 24.324 17.8404C23.9466 18.3843 23.7579 19.1113 23.7579 20.0215C23.7579 20.9318 24.0021 21.6644 24.4905 22.2194C24.9901 22.7744 25.7171 23.0519 26.6717 23.0519Z" fill="#4F5EE3"/>
<path d="M42.1231 9.34874V6.98441H44.9537L45.9194 2.28904H47.9174V6.98441H55.1103V9.34874H47.9174V20.2047C47.9174 21.0816 48.1505 21.731 48.6167 22.1528C49.094 22.5746 49.8711 22.7855 50.9478 22.7855C52.4352 22.7855 54.0836 22.5968 55.8929 22.2194V24.5005C54.017 25.0111 52.1577 25.2664 50.3151 25.2664C48.5168 25.2664 47.1682 24.889 46.2691 24.1342C45.3699 23.3682 44.9204 22.1639 44.9204 20.5211V9.34874H42.1231Z" fill="#4F5EE3"/>
<path d="M59.3561 28.663V27.0646H79.9691V28.663H59.3561Z" fill="#4F5EE3"/>
<path d="M82.0837 15.9755C82.0837 12.9785 82.7997 10.6752 84.2316 9.06569C85.6635 7.45617 87.7337 6.65141 90.4421 6.65141C92.4624 6.65141 94.1274 7.13981 95.4372 8.11663C96.747 9.08234 97.5573 10.3866 97.8681 12.0294L94.6713 12.2625C94.4937 11.2524 94.0497 10.4588 93.3393 9.88155C92.6289 9.29324 91.6188 8.99909 90.3089 8.99909C88.5551 8.99909 87.2675 9.543 86.4461 10.6308C85.6358 11.7186 85.2306 13.478 85.2306 15.9089C85.2306 18.3732 85.6358 20.1769 86.4461 21.3203C87.2675 22.4525 88.5496 23.0186 90.2923 23.0186C91.4911 23.0186 92.4846 22.7244 93.2727 22.1361C94.0608 21.5478 94.5492 20.6487 94.7379 19.4388L97.9014 19.6386C97.7571 20.7042 97.352 21.6755 96.686 22.5524C96.0311 23.4182 95.1597 24.1009 94.0719 24.6004C92.9841 25.0888 91.7686 25.333 90.4255 25.333C87.706 25.333 85.6358 24.5338 84.215 22.9353C82.7941 21.3369 82.0837 19.017 82.0837 15.9755Z" fill="#4F5EE3"/>
<path d="M103.479 0.291016H106.493V6.78461C106.493 7.43952 106.443 8.53288 106.343 10.0647H106.393C107.559 7.78917 109.44 6.65141 112.037 6.65141C115.923 6.65141 117.865 8.76599 117.865 12.9951V25H114.851V13.4281C114.851 11.9184 114.557 10.7973 113.969 10.0647C113.392 9.33209 112.465 8.96579 111.188 8.96579C109.812 8.96579 108.68 9.47085 107.792 10.481C106.915 11.48 106.476 12.8397 106.476 14.5603V25H103.479V0.291016Z" fill="#4F5EE3"/>
<path d="M139.211 23.1518C139.499 23.1518 139.827 23.1129 140.193 23.0352V24.9001C139.438 25.0777 138.667 25.1665 137.879 25.1665C136.769 25.1665 135.958 24.8779 135.448 24.3007C134.948 23.7123 134.665 22.7966 134.599 21.5534H134.499C133.777 22.8965 132.922 23.8622 131.935 24.4505C130.958 25.0388 129.748 25.333 128.305 25.333C126.551 25.333 125.23 24.8557 124.342 23.9011C123.454 22.9464 123.01 21.6366 123.01 19.9716C123.01 16.0976 125.53 14.1329 130.569 14.0774L134.499 14.0108V13.0284C134.499 11.5743 134.204 10.5309 133.616 9.8982C133.028 9.25439 132.09 8.93249 130.802 8.93249C129.492 8.93249 128.549 9.16559 127.972 9.6318C127.395 10.098 127.05 10.8195 126.939 11.7963L123.809 11.5133C124.32 8.27203 126.668 6.65141 130.852 6.65141C133.072 6.65141 134.737 7.17311 135.847 8.21653C136.968 9.24884 137.529 10.7474 137.529 12.7121V20.4711C137.529 21.3591 137.646 22.0307 137.879 22.4858C138.112 22.9298 138.556 23.1518 139.211 23.1518ZM129.071 23.0519C130.136 23.0519 131.08 22.7966 131.901 22.286C132.723 21.7754 133.361 21.0927 133.816 20.238C134.271 19.3833 134.499 18.5008 134.499 17.5906V16.1087L131.335 16.1753C130.025 16.1975 129.026 16.3418 128.338 16.6082C127.65 16.8747 127.112 17.2854 126.723 17.8404C126.346 18.3843 126.157 19.1113 126.157 20.0215C126.157 20.9318 126.401 21.6644 126.89 22.2194C127.389 22.7744 128.116 23.0519 129.071 23.0519Z" fill="#4F5EE3"/>
<path d="M144.522 9.34874V6.98441H147.353L148.318 2.28904H150.316V6.98441H157.509V9.34874H150.316V20.2047C150.316 21.0816 150.549 21.731 151.016 22.1528C151.493 22.5746 152.27 22.7855 153.347 22.7855C154.834 22.7855 156.483 22.5968 158.292 22.2194V24.5005C156.416 25.0111 154.557 25.2664 152.714 25.2664C150.916 25.2664 149.567 24.889 148.668 24.1342C147.769 23.3682 147.319 22.1639 147.319 20.5211V9.34874H144.522Z" fill="#4F5EE3"/>
</svg>
