<svg width="24" height="23" viewBox="0 0 24 23" fill="none" xmlns="http://www.w3.org/2000/svg">
<path fill-rule="evenodd" clip-rule="evenodd" d="M1.54019 13.0146H18.7441L11.228 20.4062C10.6273 20.9969 10.6273 21.9662 11.228 22.557C11.8287 23.1477 12.799 23.1477 13.3996 22.557L23.5495 12.5754C24.1502 11.9847 24.1502 11.0304 23.5495 10.4397L13.415 0.443015C13.1273 0.159391 12.7366 0 12.3292 0C11.9218 0 11.5311 0.159391 11.2434 0.443015C10.6427 1.03373 10.6427 1.98796 11.2434 2.57868L18.7441 9.98533H1.54019C0.693085 9.98533 0 10.6669 0 11.5C0 12.333 0.693085 13.0146 1.54019 13.0146Z" fill="#DAF97A"/>
</svg>
